<svg width="69" height="6" viewBox="0 0 69 6" fill="none" xmlns="http://www.w3.org/2000/svg">
<path d="M1 1.47059L3.47315 3L5.40674 4.14668C6.30117 4.67711 7.4065 4.70652 8.32787 4.2244L13.0077 1.7756C13.9291 1.29348 15.0344 1.32289 15.9288 1.85332L19.796 4.14668C20.6904 4.67711 21.7958 4.70652 22.7171 4.2244L27.1337 1.91335C28.1933 1.35888 29.4811 1.48674 30.411 2.23875L32.2511 3.72677C33.2025 4.49616 34.5258 4.61065 35.5952 4.01609L39.5142 1.83727C40.4467 1.31881 41.5845 1.33466 42.5022 1.87891L46.2348 4.09251C47.1783 4.65201 48.3519 4.65201 49.2954 4.09251L52.9798 1.90749C53.9233 1.34799 55.0969 1.34799 56.0403 1.90749L59.7248 4.09251C60.6682 4.65201 61.8418 4.65201 62.7853 4.09251L68 1" stroke="#0F172A"/>
</svg>
